<svg xmlns="http://www.w3.org/2000/svg" viewBox="0 0 64 64">
  <g>
    <!-- Sun circle -->
    <circle cx="32" cy="32" r="20" fill="#ffd700" stroke="#b8860b" stroke-width="2"/>
    <!-- Wolf silhouette -->
    <path d="M20 38 Q24 28 32 24 Q40 28 44 38 
             L40 42 L36 36 L32 42 L28 36 L24 42 Z" 
          fill="#1e3a5f" stroke="#0c1f33" stroke-width="1"/>
    <!-- Wolf head details -->
    <path d="M28 30 L32 24 L36 30" fill="#1e3a5f"/>
    <!-- Ears -->
    <path d="M26 30 L24 24 L28 28" fill="#1e3a5f"/>
    <path d="M38 30 L40 24 L36 28" fill="#1e3a5f"/>
    <!-- Sun rays -->
    <g stroke="#b8860b" stroke-width="2">
      <line x1="32" y1="6" x2="32" y2="10"/>
      <line x1="32" y1="54" x2="32" y2="58"/>
      <line x1="6" y1="32" x2="10" y2="32"/>
      <line x1="54" y1="32" x2="58" y2="32"/>
      <line x1="13" y1="13" x2="16" y2="16"/>
      <line x1="48" y1="48" x2="51" y2="51"/>
      <line x1="51" y1="13" x2="48" y2="16"/>
      <line x1="16" y1="48" x2="13" y2="51"/>
    </g>
  </g>
</svg>
