# 3ds Max Wavefront OBJ Exporter v0.97b - (c)2007 guruware
# File Created: 08.02.2017 14:57:07

#
# object Rock_LOD9_50
#

v  2.3013 0.1664 0.0693
v  1.2893 -0.1410 -2.5332
v  1.7236 2.0314 0.1861
v  1.1081 1.7394 -2.0454
v  0.2771 -0.2693 -2.7608
v  1.4834 0.9995 2.1351
v  0.8673 -0.1906 2.9384
v  -1.2655 0.1265 -2.0542
v  0.1159 2.2410 -1.9796
v  -1.9002 1.1971 -1.2960
v  -1.8166 0.0098 -0.4984
v  -1.8257 0.0205 1.6853
v  -2.5292 1.1003 0.1944
v  -0.7922 0.0709 2.8528
v  -1.2758 0.7423 2.3603
v  2.1700 1.7058 1.2408
v  -1.6130 1.5990 -0.1582
v  -1.2529 2.2063 -1.0476
v  -1.6118 1.6366 0.8626
v  1.7426 1.6383 2.1590
v  0.9747 3.0567 -1.7017
v  0.3901 1.8471 2.2487
v  -1.1647 2.6296 0.8573
v  1.9262 3.3907 0.2595
v  0.8355 3.4325 0.5362
v  1.6543 3.9924 -0.5183
v  -0.8556 3.5163 -0.3669
v  0.8031 4.8901 -0.8017
v  -0.4147 3.8607 0.4304
v  0.8654 4.6447 -0.0682
# 30 vertices

vn 0.9837 0.1398 -0.1132
vn 0.5683 0.2815 -0.7732
vn 0.9261 0.0818 -0.3684
vn 0.6207 0.2672 -0.7371
vn -0.0726 0.2762 -0.9583
vn 0.5886 -0.0831 0.8041
vn 0.3510 0.3922 0.8503
vn -0.5900 0.1405 -0.7951
vn -0.2550 0.4541 -0.8537
vn -0.8231 0.2515 -0.5092
vn -0.8842 -0.3953 -0.2489
vn -0.8852 -0.0431 0.4632
vn -0.9813 0.1927 -0.0050
vn -0.2035 0.4628 0.8628
vn -0.5418 0.3816 0.7489
vn 0.9785 0.1003 0.1804
vn -0.7184 0.6651 -0.2039
vn -0.7235 0.5330 -0.4388
vn -0.6360 0.4463 0.6295
vn 0.5634 0.1784 0.8067
vn 0.3612 0.3775 -0.8527
vn -0.0743 0.4404 0.8947
vn -0.6746 0.5367 0.5068
vn 0.8420 0.5021 0.1972
vn 0.1527 0.6149 0.7737
vn 0.8983 0.4269 -0.1044
vn -0.7684 0.5705 -0.2899
vn 0.0492 0.9189 -0.3914
vn -0.4246 0.6666 0.6126
vn 0.2400 0.7848 0.5714
# 30 vertex normals

vt 0.7513 0.5348 0.0000
vt 0.5659 0.3576 0.0000
vt 0.8815 0.4127 0.0000
vt 0.7219 0.2730 0.0000
vt 0.5138 0.2770 0.0000
vt 0.4729 0.4938 0.0000
vt 0.5641 0.3699 0.0000
vt 0.5719 0.6901 0.0000
vt 0.5069 0.1164 0.0000
vt 0.7273 0.1731 0.0000
vt 0.5907 0.0090 0.0000
vt 0.0040 0.0025 0.0000
vt 0.1749 0.0333 0.0000
vt 0.0343 0.1395 0.0000
vt 0.3604 0.1441 0.0000
vt 0.1836 0.1585 0.0000
vt 0.4749 0.2391 0.0000
vt 0.3881 0.2442 0.0000
vt 0.9274 0.5104 0.0000
vt 0.1157 0.2224 0.0000
vt 0.7031 0.0254 0.0000
vt 0.0222 0.2551 0.0000
vt 0.2255 0.2574 0.0000
vt 0.4162 0.5342 0.0000
vt 0.8310 0.2119 0.0000
vt 0.3994 0.6188 0.0000
vt 0.3629 0.4249 0.0000
vt 0.1793 0.3435 0.0000
vt 0.9842 0.3400 0.0000
vt 0.2141 0.6424 0.0000
vt 0.1860 0.5435 0.0000
vt 0.9766 0.2468 0.0000
vt 0.0462 0.3915 0.0000
vt 0.8428 0.0028 0.0000
vt 0.9975 0.1319 0.0000
vt 0.1077 0.4532 0.0000
vt 0.0750 0.5782 0.0000
vt 0.1267 0.6644 0.0000
vt 0.0027 0.5981 0.0000
# 39 texture coords

g Rock_LOD9_50
s 1
f 1/1/1 2/2/2 3/3/3 
f 4/4/4 2/2/2 5/5/5 
f 6/6/6 7/7/7 1/8/1 
f 4/4/4 3/3/3 2/2/2 
f 5/5/5 8/9/8 9/10/9 
f 5/5/5 9/10/9 4/4/4 
f 9/10/9 8/9/8 10/11/10 
f 8/12/8 11/13/11 10/14/10 
f 12/15/12 13/16/13 11/13/11 
f 12/15/12 14/17/14 15/18/15 
f 13/16/13 12/15/12 15/18/15 
f 13/16/13 10/14/10 11/13/11 
f 6/6/6 14/17/14 7/7/7 
f 3/3/3 16/19/16 1/1/1 
f 6/6/6 15/18/15 14/17/14 
f 17/20/17 10/14/10 13/16/13 
f 10/11/10 18/21/18 9/10/9 
f 18/22/18 10/14/10 17/20/17 
f 13/16/13 15/18/15 19/23/19 
f 6/6/6 1/8/1 20/24/20 
f 21/25/21 4/4/4 9/10/9 
f 1/8/1 16/26/16 20/24/20 
f 22/27/22 15/18/15 6/6/6 
f 22/27/22 19/23/19 15/18/15 
f 6/6/6 20/24/20 22/27/22 
f 3/3/3 4/4/4 21/25/21 
f 23/28/23 13/16/13 19/23/19 
f 24/29/24 16/19/16 3/3/3 
f 17/20/17 13/16/13 23/28/23 
f 19/23/19 22/27/22 23/28/23 
f 18/22/18 17/20/17 23/28/23 
f 20/24/20 16/26/16 24/30/24 
f 9/10/9 18/21/18 21/25/21 
f 22/27/22 25/31/25 23/28/23 
f 25/31/25 22/27/22 20/24/20 
f 24/29/24 3/3/3 26/32/26 
f 20/24/20 24/30/24 25/31/25 
f 27/33/27 18/22/18 23/28/23 
f 26/32/26 3/3/3 21/25/21 
f 21/25/21 18/21/18 27/34/27 
f 26/32/26 21/25/21 28/35/28 
f 29/36/29 27/33/27 23/28/23 
f 25/31/25 29/36/29 23/28/23 
f 28/35/28 21/25/21 27/34/27 
f 29/36/29 25/31/25 30/37/30 
f 25/31/25 24/30/24 26/38/26 
f 27/33/27 29/36/29 28/39/28 
f 25/31/25 26/38/26 30/37/30 
f 29/36/29 30/37/30 28/39/28 
f 30/37/30 26/38/26 28/39/28 
# 0 polygons - 50 triangles

