# 3ds Max Wavefront OBJ Exporter v0.97b - (c)2007 guruware
# File Created: 08.02.2017 14:57:29

#
# object Rock_LOD7_250
#

v  0.6778 -0.2818 -2.8424
v  1.0097 -0.5927 -2.5165
v  0.2909 -0.4687 -2.6450
v  1.2425 -0.2219 -2.5433
v  1.6335 -0.1645 -1.8746
v  -0.2894 -0.1311 -2.4937
v  0.6251 -0.1569 -2.6581
v  1.4599 0.1350 -1.9268
v  -0.0941 0.0902 -2.4342
v  0.3312 0.4205 -2.5899
v  1.1698 0.4278 -2.4617
v  1.8973 -0.2943 -0.8549
v  -1.3162 -0.3337 -1.9924
v  -1.6959 -0.3944 -1.3489
v  -1.3787 0.0988 -1.7361
v  2.0675 0.2565 -0.4015
v  2.0740 -0.0605 -0.6820
v  1.9888 -0.3150 0.7587
v  2.1571 -0.1411 0.0166
v  2.2801 0.4868 0.2535
v  -0.8912 0.3556 -2.1820
v  -1.5262 -0.0504 -1.1259
v  1.9390 0.0635 0.7735
v  1.8454 -0.0827 1.1896
v  1.3579 1.0934 -1.3740
v  -1.9494 0.0226 -0.7224
v  1.3887 -0.0233 2.2638
v  1.1749 -0.3651 2.5509
v  -1.5737 0.0044 -0.4187
v  -1.8825 -0.2320 -0.3726
v  -1.7309 -0.1324 0.2619
v  -1.3770 0.3788 -1.9372
v  -0.4667 0.7819 -2.2256
v  0.5352 -0.2436 2.9351
v  0.3525 -0.4192 2.9392
v  1.0221 1.2226 -2.2595
v  -2.1162 -0.2613 0.4418
v  1.3485 0.1370 2.0123
v  1.0699 -0.1254 2.6473
v  -1.8701 -0.1128 1.1287
v  -2.1537 -0.4185 1.5341
v  -2.1381 -0.0941 1.2624
v  0.3071 -0.0016 2.9052
v  -1.6967 0.1698 0.5721
v  1.7119 0.4655 1.4713
v  2.0451 0.9492 1.1663
v  -0.5017 1.2845 -2.0268
v  -1.8830 0.8521 -1.0087
v  -0.6209 -0.3768 2.7876
v  -0.0885 0.2047 2.8210
v  -1.9928 0.1380 0.2863
v  -2.1380 0.3890 0.1868
v  1.9464 1.0964 -0.1519
v  0.6009 1.3677 -2.3022
v  -1.0027 -0.1302 2.8088
v  -1.6965 -0.0686 1.9983
v  -0.9190 0.1682 2.6868
v  -1.8889 0.0928 1.0358
v  -1.8280 0.4823 -0.1048
v  -2.1858 0.6389 -0.5103
v  1.0393 0.7659 2.3168
v  -1.8361 0.1288 1.6140
v  1.4865 0.5819 2.1141
v  -1.8195 1.2337 -1.3302
v  1.5297 1.4094 -0.9354
v  -2.3279 0.6864 0.6708
v  -2.3158 0.8125 -0.2360
v  -0.9206 0.5940 2.5636
v  -1.4810 0.7924 2.0546
v  2.1423 1.3095 0.7291
v  0.2324 1.7742 -2.1528
v  1.2432 1.4735 2.1838
v  -2.5051 1.0925 0.1311
v  -2.2432 1.1297 -0.7068
v  1.5514 1.9095 -0.4308
v  0.0179 0.9918 2.2985
v  1.0644 1.1708 2.0741
v  1.1993 2.0692 -1.9098
v  -0.8476 1.0286 2.3486
v  2.1459 1.6848 1.3503
v  -2.0925 1.3355 0.0762
v  -1.5575 1.3706 -0.4497
v  -1.3394 1.9783 -1.1532
v  -2.2900 1.4816 0.3369
v  -1.8011 1.2277 1.1771
v  0.0848 2.4422 -1.9636
v  1.7348 1.7541 2.3897
v  0.9453 2.5854 -1.9856
v  1.7410 2.1635 0.1341
v  -1.0155 1.6616 1.1901
v  -0.6793 2.2422 -1.4872
v  -1.6312 1.9630 0.8957
v  1.2991 2.1937 1.6510
v  -1.4566 1.9958 -0.0290
v  2.0940 1.9587 1.4060
v  0.3215 1.7996 2.3005
v  -1.7765 2.2136 0.0577
v  1.4326 2.4882 -0.4898
v  2.0879 2.1732 0.8689
v  1.2169 2.0907 2.1050
v  0.3752 2.1615 1.8430
v  1.5916 2.3153 1.4681
v  2.1609 2.6080 0.7945
v  -0.0872 3.0294 -0.9439
v  -0.6508 2.1045 1.0580
v  0.3762 2.9240 -1.6043
v  1.9690 3.1711 0.3874
v  -1.1317 2.7118 -0.5908
v  0.9574 2.9303 -1.7380
v  -1.3113 2.5252 0.6459
v  -0.8736 2.7026 0.9550
v  -0.5670 2.4522 1.1241
v  -1.0834 2.9005 0.3988
v  0.6555 2.9329 1.0133
v  0.3263 3.4721 -1.1811
v  1.6762 3.5358 -0.4777
v  0.8698 3.5900 -1.4550
v  0.0391 4.4435 -0.5486
v  -0.8335 2.9858 0.9639
v  1.5552 3.3330 0.4387
v  -1.0418 3.2011 -0.4114
v  1.9097 3.5372 0.1054
v  0.0157 3.2377 0.6485
v  1.3525 3.8782 -1.1682
v  -0.4267 3.8943 0.3722
v  -0.4676 3.3923 0.6728
v  1.0389 3.9587 0.2412
v  -0.5293 3.9316 -0.3840
v  1.1954 4.3263 -1.0911
v  1.6314 4.0502 -0.0884
v  0.7227 4.5240 0.0086
v  0.7216 4.4531 -0.9938
v  1.3177 4.1824 0.1492
v  0.8185 4.8103 -0.8126
v  0.7942 4.7522 -0.2736
# 135 vertices

vn 0.1126 0.0924 -0.9893
vn 0.4736 -0.5203 -0.7106
vn -0.2723 -0.3730 -0.8870
vn 0.6758 -0.0868 -0.7319
vn 0.8818 0.3411 -0.3258
vn -0.2982 0.2854 -0.9108
vn 0.1220 0.5928 -0.7961
vn 0.8791 0.3018 -0.3688
vn -0.2690 0.2575 -0.9281
vn -0.1333 0.1666 -0.9770
vn 0.6013 0.2436 -0.7610
vn 0.8815 0.1638 -0.4428
vn -0.6413 0.3203 -0.6972
vn -0.7920 0.4751 -0.3833
vn -0.8453 -0.0153 -0.5340
vn 0.9284 0.1641 -0.3333
vn 0.2169 0.6493 -0.7289
vn 0.9371 -0.0360 0.3472
vn 0.9912 -0.1213 -0.0534
vn 0.9996 0.0167 -0.0212
vn -0.4534 0.0444 -0.8902
vn -0.8408 0.2229 -0.4933
vn 0.9052 -0.0257 0.4243
vn 0.9333 -0.0174 0.3586
vn 0.9163 0.1528 -0.3703
vn -0.9705 -0.1358 -0.1993
vn 0.7605 0.3863 0.5220
vn 0.7194 -0.0935 0.6883
vn -0.9303 -0.0977 0.3535
vn -0.5230 0.8191 0.2359
vn -0.9248 0.3792 -0.0320
vn -0.6578 -0.1305 -0.7418
vn -0.3211 0.2674 -0.9085
vn 0.3016 0.0139 0.9533
vn 0.0192 -0.0520 0.9985
vn 0.5847 0.2634 -0.7673
vn -0.4112 0.9071 -0.0893
vn 0.9130 0.1266 0.3879
vn 0.5678 0.1318 0.8126
vn -0.6867 0.7203 -0.0980
vn -0.8856 0.2874 0.3650
vn -0.6856 0.7276 0.0252
vn 0.0586 0.2956 0.9535
vn -0.9269 -0.3727 0.0429
vn 0.8759 -0.2331 0.4225
vn 0.9249 -0.2074 0.3186
vn -0.3905 0.3227 -0.8622
vn -0.8143 -0.2609 -0.5185
vn -0.0771 0.1340 0.9880
vn -0.0483 0.3407 0.9389
vn -0.8151 -0.5089 0.2768
vn -0.8112 -0.5756 -0.1029
vn 0.8951 0.2862 -0.3418
vn 0.0660 0.3813 -0.9221
vn -0.2166 0.3981 0.8914
vn -0.7469 0.3601 0.5590
vn -0.4017 0.2984 0.8658
vn -0.8921 -0.4290 -0.1418
vn -0.9329 -0.1952 -0.3025
vn -0.8850 -0.4406 -0.1504
vn 0.2484 0.3599 0.8993
vn -0.9164 -0.1561 0.3685
vn 0.7492 -0.1620 0.6422
vn -0.7892 0.3494 -0.5051
vn 0.9289 0.1401 -0.3429
vn -0.9339 -0.2310 0.2729
vn -0.9441 -0.2638 -0.1976
vn -0.3838 0.3444 0.8568
vn -0.6835 0.3378 0.6470
vn 0.9851 0.1533 -0.0782
vn -0.1176 0.2135 -0.9698
vn -0.1701 -0.0476 0.9843
vn -0.9524 0.2098 -0.2210
vn -0.8438 0.3994 -0.3584
vn 0.9289 0.2126 -0.3031
vn 0.0953 0.2727 0.9574
vn -0.3329 0.1822 0.9252
vn 0.7488 0.1664 -0.6415
vn -0.3112 0.5684 0.7616
vn 0.9659 0.0801 0.2460
vn -0.5971 0.5550 -0.5792
vn -0.7105 0.6735 -0.2039
vn -0.7497 0.4912 -0.4435
vn -0.8779 0.4789 0.0053
vn -0.6577 0.4634 0.5939
vn -0.3403 0.4911 -0.8019
vn 0.4387 0.2940 0.8492
vn 0.3573 0.3841 -0.8514
vn 0.9115 0.0331 -0.4099
vn -0.3753 0.6034 0.7036
vn -0.5227 0.5265 -0.6705
vn -0.5583 0.4777 0.6783
vn 0.2358 0.7888 0.5676
vn -0.6731 0.4883 -0.5554
vn 0.7203 0.2776 0.6357
vn -0.1146 0.4583 0.8814
vn -0.4473 0.6977 -0.5595
vn 0.9315 0.0183 -0.3632
vn 0.9978 -0.0527 -0.0400
vn 0.0148 0.7923 0.6100
vn -0.1803 0.7389 0.6493
vn 0.3741 0.5754 0.7273
vn 0.9535 0.2255 0.1999
vn -0.5493 0.4886 -0.6779
vn -0.4407 0.2904 0.8494
vn -0.4078 0.5780 -0.7069
vn 0.9026 0.3868 0.1890
vn -0.8175 0.4423 -0.3689
vn 0.4564 0.4010 -0.7943
vn -0.7538 0.6121 0.2390
vn -0.3122 0.2064 0.9273
vn -0.3986 0.2605 0.8794
vn -0.8433 0.5219 0.1286
vn -0.0032 0.6743 0.7384
vn -0.5757 0.3897 -0.7188
vn 0.9170 0.0286 -0.3978
vn -0.1239 0.4859 -0.8652
vn -0.6034 0.7432 -0.2891
vn -0.2982 0.4231 0.8556
vn 0.3162 0.5800 0.7507
vn -0.8151 0.4410 -0.3758
vn 0.9176 0.3517 0.1851
vn 0.0186 0.5138 0.8577
vn 0.7525 0.2035 -0.6263
vn -0.4798 0.6732 0.5627
vn -0.2183 0.5376 0.8144
vn 0.0654 0.4257 0.9025
vn -0.7191 0.5879 -0.3704
vn 0.4755 0.5479 -0.6883
vn 0.8172 0.5514 0.1680
vn -0.0703 0.7065 0.7042
vn -0.2907 0.4005 -0.8690
vn 0.3828 0.5768 0.7216
vn 0.0750 0.9146 -0.3973
vn 0.0659 0.9370 0.3430
# 135 vertex normals

vt 0.1535 0.6772 0.0000
vt 0.1841 0.7213 0.0000
vt 0.1207 0.6796 0.0000
vt 0.2060 0.6885 0.0000
vt 0.2732 0.7022 0.0000
vt 0.0874 0.6194 0.0000
vt 0.1576 0.6585 0.0000
vt 0.2701 0.6723 0.0000
vt 0.1113 0.6100 0.0000
vt 0.1572 0.6068 0.0000
vt 0.2235 0.6377 0.0000
vt 0.3616 0.7229 0.0000
vt 0.8360 0.6950 0.0000
vt 0.7619 0.6677 0.0000
vt 0.8485 0.6539 0.0000
vt 0.8839 0.7649 0.0000
vt 0.4120 0.6833 0.0000
vt 0.3898 0.7125 0.0000
vt 0.5123 0.7436 0.0000
vt 0.4483 0.7198 0.0000
vt 0.4725 0.6689 0.0000
vt 0.0026 0.5551 0.0000
vt 0.0610 0.5580 0.0000
vt 0.7875 0.6361 0.0000
vt 0.5200 0.7108 0.0000
vt 0.5550 0.7265 0.0000
vt 0.3238 0.5934 0.0000
vt 0.7291 0.6136 0.0000
vt 0.6546 0.7320 0.0000
vt 0.6777 0.7651 0.0000
vt 0.6942 0.5886 0.0000
vt 0.6748 0.6058 0.0000
vt 0.6582 0.5448 0.0000
vt 0.8887 0.6368 0.0000
vt 0.1107 0.5385 0.0000
vt 0.0243 0.5370 0.0000
vt 0.4652 0.1478 0.0000
vt 0.4833 0.2053 0.0000
vt 0.4693 0.2278 0.0000
vt 0.2439 0.5700 0.0000
vt 0.6280 0.5433 0.0000
vt 0.6379 0.7113 0.0000
vt 0.4895 0.1416 0.0000
vt 0.6254 0.4738 0.0000
vt 0.5715 0.4745 0.0000
vt 0.6032 0.4785 0.0000
vt 0.5040 0.2183 0.0000
vt 0.6662 0.5051 0.0000
vt 0.5835 0.6787 0.0000
vt 0.4508 0.1183 0.0000
vt 0.5514 0.6324 0.0000
vt 0.1267 0.4946 0.0000
vt 0.6957 0.7374 0.0000
vt 0.8370 0.5659 0.0000
vt 0.4994 0.3088 0.0000
vt 0.5307 0.2469 0.0000
vt 0.6845 0.5283 0.0000
vt 0.7084 0.5244 0.0000
vt 0.4393 0.6118 0.0000
vt 0.2145 0.5429 0.0000
vt 0.5277 0.3353 0.0000
vt 0.5798 0.4117 0.0000
vt 0.5512 0.3203 0.0000
vt 0.6435 0.4687 0.0000
vt 0.7384 0.5465 0.0000
vt 0.7843 0.5503 0.0000
vt 0.5651 0.1282 0.0000
vt 0.6171 0.4253 0.0000
vt 0.6451 0.6733 0.0000
vt 0.9941 0.5801 0.0000
vt 0.8894 0.5361 0.0000
vt 0.3682 0.5728 0.0000
vt 0.7117 0.4676 0.0000
vt 0.7745 0.5194 0.0000
vt 0.5462 0.0889 0.0000
vt 0.5854 0.3049 0.0000
vt 0.6343 0.3501 0.0000
vt 0.5173 0.5981 0.0000
vt 0.2021 0.4944 0.0000
vt 0.6255 0.0930 0.0000
vt 0.7676 0.4746 0.0000
vt 0.8281 0.5197 0.0000
vt 0.4166 0.5341 0.0000
vt 0.6063 0.2123 0.0000
vt 0.6059 0.1204 0.0000
vt 0.2898 0.5047 0.0000
vt 0.6237 0.2857 0.0000
vt 0.5739 0.5683 0.0000
vt 0.8024 0.4597 0.0000
vt 0.8626 0.4629 0.0000
vt 0.9398 0.4711 0.0000
vt 0.7796 0.4364 0.0000
vt 0.7145 0.3841 0.0000
vt 0.2178 0.4341 0.0000
vt 0.6512 0.0496 0.0000
vt 0.6616 0.6007 0.0000
vt 0.2839 0.4554 0.0000
vt 0.4711 0.5173 0.0000
vt 0.7359 0.3059 0.0000
vt 0.0911 0.3703 0.0000
vt 0.1499 0.3955 0.0000
vt 0.7811 0.3534 0.0000
vt 0.7319 0.0872 0.0000
vt 0.7266 0.0037 0.0000
vt 0.8694 0.4048 0.0000
vt 0.7412 0.0213 0.0000
vt 0.6717 0.1705 0.0000
vt 0.8394 0.3935 0.0000
vt 0.4155 0.4831 0.0000
vt 0.5396 0.5207 0.0000
vt 0.7790 0.0027 0.0000
vt 0.6878 0.0936 0.0000
vt 0.7237 0.1686 0.0000
vt 0.7549 0.0652 0.0000
vt 0.5393 0.4812 0.0000
vt 0.2258 0.3349 0.0000
vt 0.7713 0.2684 0.0000
vt 0.2598 0.3966 0.0000
vt 0.5088 0.4292 0.0000
vt 0.1362 0.2937 0.0000
vt 0.3064 0.4280 0.0000
vt 0.8364 0.3238 0.0000
vt 0.8271 0.2749 0.0000
vt 0.8120 0.0103 0.0000
vt 0.7967 0.2495 0.0000
vt 0.8777 0.3130 0.0000
vt 0.8679 0.0263 0.0000
vt 0.8231 0.1438 0.0000
vt 0.1217 0.2057 0.0000
vt 0.2792 0.3416 0.0000
vt 0.4364 0.3905 0.0000
vt 0.3235 0.3689 0.0000
vt 0.3099 0.2450 0.0000
vt 0.8505 0.2690 0.0000
vt 0.8754 0.0625 0.0000
vt 0.1676 0.2533 0.0000
vt 0.4889 0.3946 0.0000
vt 0.8711 0.1969 0.0000
vt 0.9043 0.0275 0.0000
vt 0.3757 0.3575 0.0000
vt 0.2653 0.1828 0.0000
vt 0.8898 0.2395 0.0000
vt 0.2150 0.1617 0.0000
vt 0.9250 0.1002 0.0000
vt 0.2475 0.2439 0.0000
vt 0.3755 0.3196 0.0000
vt 0.9469 0.0447 0.0000
vt 0.9744 0.1146 0.0000
vt 0.3546 0.2907 0.0000
vt 0.4691 0.3433 0.0000
vt 0.9394 0.2216 0.0000
vt 0.9425 0.0747 0.0000
vt 0.3884 0.2740 0.0000
vt 0.9975 0.0929 0.0000
vt 0.4148 0.2158 0.0000
vt 0.4249 0.2463 0.0000
# 156 texture coords

g Rock_LOD7_250
s 1
f 1/1/1 2/2/2 3/3/3 
f 4/4/4 2/2/2 1/1/1 
f 2/2/2 4/4/4 5/5/5 
f 3/3/3 6/6/6 1/1/1 
f 4/4/4 1/1/1 7/7/7 
f 5/5/5 4/4/4 8/8/8 
f 1/1/1 6/6/6 9/9/9 
f 1/1/1 9/9/9 7/7/7 
f 9/9/9 10/10/10 7/7/7 
f 4/4/4 7/7/7 10/10/10 
f 11/11/11 4/4/4 10/10/10 
f 5/5/5 8/8/8 12/12/12 
f 13/13/13 14/14/14 15/15/15 
f 8/8/8 4/4/4 11/11/11 
f 13/13/13 15/15/15 6/16/6 
f 16/17/16 17/18/17 12/12/12 
f 18/19/18 19/20/19 20/21/20 
f 15/22/15 21/23/21 6/6/6 
f 15/15/15 14/14/14 22/24/22 
f 18/19/18 23/25/23 24/26/24 
f 17/18/17 16/17/16 19/20/19 
f 8/8/8 11/11/11 25/27/25 
f 16/17/16 12/12/12 8/8/8 
f 9/9/9 6/6/6 21/23/21 
f 18/19/18 20/21/20 23/25/23 
f 22/24/22 14/14/14 26/28/26 
f 18/19/18 27/29/27 28/30/28 
f 29/31/29 30/32/30 31/33/31 
f 32/34/32 15/15/15 22/24/22 
f 27/29/27 18/19/18 24/26/24 
f 16/17/16 8/8/8 25/27/25 
f 16/17/16 20/21/20 19/20/19 
f 33/35/33 10/10/10 9/9/9 
f 32/36/32 21/23/21 15/22/15 
f 28/37/28 34/38/34 35/39/35 
f 36/40/36 11/11/11 10/10/10 
f 31/33/31 30/32/30 37/41/37 
f 38/42/38 27/29/27 24/26/24 
f 26/28/26 30/32/30 29/31/29 
f 34/38/34 28/37/28 39/43/39 
f 37/41/37 40/44/40 31/33/31 
f 37/41/37 41/45/41 42/46/42 
f 43/47/43 34/38/34 39/43/39 
f 40/44/40 44/48/44 31/33/31 
f 45/49/45 24/26/24 23/25/23 
f 38/42/38 24/26/24 45/49/45 
f 36/40/36 25/27/25 11/11/11 
f 9/9/9 21/23/21 33/35/33 
f 28/37/28 27/50/27 39/43/39 
f 23/25/23 20/21/20 46/51/46 
f 21/23/21 32/36/32 47/52/47 
f 33/35/33 21/23/21 47/52/47 
f 39/53/39 27/29/27 38/42/38 
f 48/54/48 32/34/32 22/24/22 
f 40/44/40 37/41/37 42/46/42 
f 49/55/49 35/39/35 50/56/50 
f 51/57/51 52/58/52 29/31/29 
f 26/28/26 29/31/29 52/58/52 
f 23/25/23 46/51/46 45/49/45 
f 20/21/20 16/17/16 53/59/53 
f 22/24/22 26/28/26 48/54/48 
f 54/60/54 10/10/10 33/35/33 
f 35/39/35 34/38/34 43/47/43 
f 41/45/41 55/61/55 56/62/56 
f 31/33/31 51/57/51 29/31/29 
f 40/44/40 42/46/42 56/62/56 
f 35/39/35 43/47/43 50/56/50 
f 57/63/57 49/55/49 50/56/50 
f 42/46/42 41/45/41 56/62/56 
f 58/64/58 40/44/40 56/62/56 
f 44/48/44 51/57/51 31/33/31 
f 26/28/26 52/58/52 59/65/59 
f 53/59/53 16/17/16 25/27/25 
f 48/54/48 26/28/26 60/66/60 
f 39/43/39 61/67/61 43/47/43 
f 58/64/58 56/62/56 62/68/62 
f 60/66/60 26/28/26 59/65/59 
f 58/64/58 44/48/44 40/44/40 
f 57/63/57 55/61/55 49/55/49 
f 10/10/10 54/60/54 36/40/36 
f 39/53/39 38/42/38 63/69/63 
f 55/61/55 57/63/57 56/62/56 
f 63/69/63 38/42/38 45/49/45 
f 57/63/57 62/68/62 56/62/56 
f 47/70/47 32/34/32 64/71/64 
f 53/59/53 25/27/25 65/72/65 
f 32/34/32 48/54/48 64/71/64 
f 66/73/66 44/48/44 58/64/58 
f 59/65/59 67/74/67 60/66/60 
f 50/56/50 43/47/43 61/67/61 
f 61/67/61 39/43/39 63/75/63 
f 62/68/62 66/73/66 58/64/58 
f 57/63/57 68/76/68 62/68/62 
f 44/48/44 52/58/52 51/57/51 
f 25/27/25 36/40/36 65/72/65 
f 62/68/62 68/76/68 69/77/69 
f 54/60/54 33/35/33 47/52/47 
f 66/73/66 62/68/62 69/77/69 
f 45/49/45 46/51/46 63/69/63 
f 20/21/20 70/78/70 46/51/46 
f 20/21/20 53/59/53 70/78/70 
f 50/56/50 68/76/68 57/63/57 
f 67/74/67 59/65/59 52/58/52 
f 44/48/44 66/73/66 52/58/52 
f 52/58/52 66/73/66 67/74/67 
f 54/60/54 47/52/47 71/79/71 
f 61/67/61 63/75/63 72/80/72 
f 36/40/36 54/60/54 71/79/71 
f 67/74/67 66/73/66 73/81/73 
f 60/66/60 74/82/74 48/54/48 
f 74/82/74 60/66/60 67/74/67 
f 65/72/65 75/83/75 53/59/53 
f 64/71/64 48/54/48 74/82/74 
f 50/56/50 61/67/61 76/84/76 
f 77/85/77 61/67/61 72/80/72 
f 65/72/65 36/40/36 78/86/78 
f 69/77/69 68/76/68 79/87/79 
f 76/84/76 68/76/68 50/56/50 
f 36/40/36 71/79/71 78/86/78 
f 80/88/80 46/51/46 70/78/70 
f 74/82/74 67/74/67 81/89/81 
f 82/90/82 64/71/64 74/82/74 
f 61/67/61 77/85/77 76/84/76 
f 75/83/75 70/78/70 53/59/53 
f 75/83/75 65/72/65 78/86/78 
f 76/84/76 79/87/79 68/76/68 
f 82/90/82 74/82/74 81/89/81 
f 64/71/64 83/91/83 47/70/47 
f 73/81/73 81/89/81 67/74/67 
f 66/73/66 84/92/84 73/81/73 
f 83/91/83 64/71/64 82/90/82 
f 66/73/66 69/77/69 85/93/85 
f 71/79/71 47/52/47 86/94/86 
f 84/92/84 66/73/66 85/93/85 
f 72/80/72 63/75/63 87/95/87 
f 63/69/63 46/51/46 87/96/87 
f 88/97/88 78/86/78 71/79/71 
f 80/88/80 70/78/70 89/98/89 
f 69/77/69 79/87/79 90/99/90 
f 83/100/83 91/101/91 47/52/47 
f 46/51/46 80/88/80 87/96/87 
f 81/89/81 73/81/73 84/92/84 
f 86/94/86 47/52/47 91/101/91 
f 71/79/71 86/94/86 88/97/88 
f 70/78/70 75/83/75 89/98/89 
f 85/93/85 92/102/92 84/92/84 
f 85/93/85 69/77/69 90/99/90 
f 93/103/93 87/95/87 80/104/80 
f 81/89/81 94/105/94 82/90/82 
f 93/103/93 80/104/80 95/106/95 
f 77/85/77 72/80/72 96/107/96 
f 76/84/76 77/85/77 96/107/96 
f 82/90/82 94/105/94 83/91/83 
f 97/108/97 94/105/94 81/89/81 
f 96/107/96 79/87/79 76/84/76 
f 89/98/89 75/83/75 98/109/98 
f 89/98/89 99/110/99 80/88/80 
f 96/107/96 90/99/90 79/87/79 
f 99/111/99 95/106/95 80/104/80 
f 72/80/72 87/95/87 100/112/100 
f 85/93/85 90/99/90 92/102/92 
f 81/89/81 84/92/84 97/108/97 
f 90/99/90 96/107/96 101/113/101 
f 93/103/93 95/106/95 102/114/102 
f 103/115/103 99/110/99 89/98/89 
f 104/116/104 86/94/86 91/101/91 
f 98/109/98 75/83/75 78/86/78 
f 105/117/105 92/102/92 90/99/90 
f 99/111/99 102/114/102 95/106/95 
f 88/97/88 86/94/86 106/118/106 
f 93/103/93 100/112/100 87/95/87 
f 107/119/107 89/98/89 98/109/98 
f 100/112/100 93/103/93 96/107/96 
f 72/80/72 100/112/100 96/107/96 
f 91/101/91 83/100/83 108/120/108 
f 101/113/101 96/107/96 93/103/93 
f 98/109/98 78/86/78 109/121/109 
f 88/97/88 106/118/106 109/121/109 
f 90/99/90 101/113/101 105/117/105 
f 88/97/88 109/121/109 78/86/78 
f 110/122/110 84/92/84 92/102/92 
f 107/119/107 103/115/103 89/98/89 
f 111/123/111 92/102/92 105/117/105 
f 97/108/97 84/92/84 110/122/110 
f 102/114/102 99/111/99 103/124/103 
f 105/117/105 101/113/101 112/125/112 
f 83/91/83 94/105/94 113/126/113 
f 110/122/110 94/105/94 97/108/97 
f 110/122/110 113/126/113 94/105/94 
f 110/122/110 92/102/92 111/123/111 
f 102/114/102 103/124/103 107/127/107 
f 102/114/102 114/128/114 93/103/93 
f 86/94/86 104/116/104 106/118/106 
f 91/101/91 108/120/108 104/116/104 
f 101/113/101 114/128/114 112/125/112 
f 83/100/83 113/129/113 108/120/108 
f 114/128/114 101/113/101 93/103/93 
f 111/123/111 105/117/105 112/125/112 
f 115/130/115 106/118/106 104/116/104 
f 107/119/107 98/109/98 116/131/116 
f 109/121/109 106/118/106 117/132/117 
f 118/133/118 115/130/115 104/116/104 
f 112/125/112 114/128/114 111/123/111 
f 111/123/111 119/134/119 110/122/110 
f 102/114/102 120/135/120 114/128/114 
f 107/127/107 120/135/120 102/114/102 
f 121/136/121 108/120/108 113/129/113 
f 107/119/107 116/131/116 122/137/122 
f 117/132/117 106/118/106 115/130/115 
f 123/138/123 111/123/111 114/128/114 
f 113/126/113 110/122/110 119/134/119 
f 107/127/107 122/139/122 120/135/120 
f 124/140/124 98/109/98 109/121/109 
f 124/140/124 116/131/116 98/109/98 
f 104/116/104 108/120/108 121/136/121 
f 123/138/123 119/134/119 111/123/111 
f 124/140/124 109/121/109 117/132/117 
f 125/141/125 121/136/121 113/129/113 
f 113/126/113 119/134/119 126/142/126 
f 125/141/125 113/129/113 126/143/126 
f 123/138/123 114/128/114 127/144/127 
f 114/128/114 120/135/120 127/144/127 
f 104/116/104 121/136/121 128/145/128 
f 123/138/123 126/142/126 119/134/119 
f 124/140/124 117/132/117 129/146/129 
f 128/145/128 121/136/121 125/141/125 
f 120/135/120 122/139/122 130/147/130 
f 118/133/118 104/116/104 128/145/128 
f 117/132/117 115/130/115 129/146/129 
f 126/142/126 123/138/123 131/148/131 
f 115/130/115 118/133/118 132/149/132 
f 122/137/122 116/131/116 130/150/130 
f 115/130/115 132/149/132 129/146/129 
f 116/131/116 124/140/124 130/150/130 
f 131/148/131 125/151/125 126/142/126 
f 123/138/123 127/144/127 131/148/131 
f 133/152/133 120/135/120 130/147/130 
f 130/150/130 124/140/124 129/146/129 
f 120/135/120 133/152/133 127/144/127 
f 129/146/129 134/153/134 130/150/130 
f 128/145/128 125/141/125 118/133/118 
f 133/152/133 130/147/130 135/154/135 
f 134/153/134 129/146/129 132/149/132 
f 125/141/125 131/155/131 118/133/118 
f 135/156/135 130/150/130 134/153/134 
f 133/152/133 131/148/131 127/144/127 
f 135/154/135 131/148/131 133/152/133 
f 132/149/132 118/133/118 134/153/134 
f 135/156/135 118/133/118 131/155/131 
f 118/133/118 135/156/135 134/153/134 
# 0 polygons - 250 triangles

